<?xml version="1.0" encoding="UTF-8"?>
<svg version="1.1" xmlns="http://www.w3.org/2000/svg" width="32" height="32">
<path d="M0 0 C3.82692631 1.47858517 4.83565509 2.70965733 6.875 6.3125 C8.08548587 10.28020368 8.35484831 12.1048111 7 16 C3.72812198 19.77524387 1.75856032 21.83090766 -3.25 22.3125 C-7.78826092 21.93431159 -9.66911592 21.09849682 -13 18 C-14.71419247 14.38282735 -15.23174902 11.24565096 -14.5 7.3125 C-10.73721572 1.5115409 -6.93592493 -1.00886181 0 0 Z M-5 11 C-5 11.66 -5 12.32 -5 13 C-4.34 13 -3.68 13 -3 13 C-3 12.34 -3 11.68 -3 11 C-3.66 11 -4.32 11 -5 11 Z " fill="#072327" transform="translate(20,5)"/>
<path d="M0 0 C3.4375 0.75 3.4375 0.75 5.4375 2.75 C6.0625 5.375 6.0625 5.375 6.4375 7.75 C5.7775 7.75 5.1175 7.75 4.4375 7.75 C4.1075 7.09 3.7775 6.43 3.4375 5.75 C3.1075 7.07 2.7775 8.39 2.4375 9.75 C0.0625 10.375 0.0625 10.375 -2.5625 10.75 C-4.7010485 8.6114515 -4.98905063 7.61724686 -5.5625 4.75 C-5.8925 5.74 -6.2225 6.73 -6.5625 7.75 C-7.2225 7.75 -7.8825 7.75 -8.5625 7.75 C-7.03828964 2.35664026 -6.20295632 -0.43529518 0 0 Z M-2.5625 6.75 C-2.5625 7.41 -2.5625 8.07 -2.5625 8.75 C-1.9025 8.75 -1.2425 8.75 -0.5625 8.75 C-0.5625 8.09 -0.5625 7.43 -0.5625 6.75 C-1.2225 6.75 -1.8825 6.75 -2.5625 6.75 Z " fill="#163D3E" transform="translate(17.5625,9.25)"/>
<path d="M0 0 C3.48326597 0.85529699 4.97293913 2.60978164 6.97265625 5.484375 C7.28515625 8.796875 7.28515625 8.796875 6.97265625 11.484375 C5.32265625 11.484375 3.67265625 11.484375 1.97265625 11.484375 C1.97265625 9.504375 1.97265625 7.524375 1.97265625 5.484375 C2.63265625 5.814375 3.29265625 6.144375 3.97265625 6.484375 C3.97265625 7.474375 3.97265625 8.464375 3.97265625 9.484375 C4.30265625 9.154375 4.63265625 8.824375 4.97265625 8.484375 C4.31265625 6.834375 3.65265625 5.184375 2.97265625 3.484375 C-2.30933968 2.28449455 -2.30933968 2.28449455 -7.02734375 4.484375 C-8.23184679 7.03620904 -8.23184679 7.03620904 -9.02734375 9.484375 C-8.36734375 9.484375 -7.70734375 9.484375 -7.02734375 9.484375 C-6.69734375 8.164375 -6.36734375 6.844375 -6.02734375 5.484375 C-5.69734375 5.484375 -5.36734375 5.484375 -5.02734375 5.484375 C-5.02734375 7.464375 -5.02734375 9.444375 -5.02734375 11.484375 C-6.67734375 11.484375 -8.32734375 11.484375 -10.02734375 11.484375 C-10.36344194 7.87131942 -10.2224542 5.85833669 -8.52734375 2.609375 C-5.667774 0.17874072 -3.74624162 -0.25208355 0 0 Z " fill="#688A87" transform="translate(18.02734375,7.515625)"/>
<path d="M0 0 C1.299375 0.3403125 1.299375 0.3403125 2.625 0.6875 C4.0171875 0.9659375 4.0171875 0.9659375 5.4375 1.25 C6.159375 1.394375 6.88125 1.53875 7.625 1.6875 C6.625 4.6875 6.625 4.6875 4.625 5.6875 C1.9526379 5.82165472 -0.69750488 5.73068541 -3.375 5.6875 C-4.035 4.3675 -4.695 3.0475 -5.375 1.6875 C-2.375 -0.3125 -2.375 -0.3125 0 0 Z " fill="#396461" transform="translate(15.375,18.3125)"/>
<path d="M0 0 C0.66 0 1.32 0 2 0 C2.95889979 3.66125375 3.12792765 5.63043123 1.875 9.25 C-0.21045251 12.30866369 -1.4833122 13.04954384 -5 14 C-5 11 -5 11 -3 9 C-3.33 8.34 -3.66 7.68 -4 7 C-2.68 7 -1.36 7 0 7 C0 4.69 0 2.38 0 0 Z " fill="#09282B" transform="translate(25,12)"/>
<path d="M0 0 C2 3 2 3 1.625 5.1875 C1.41875 5.785625 1.2125 6.38375 1 7 C-1.375 7.625 -1.375 7.625 -4 8 C-4.66 7.34 -5.32 6.68 -6 6 C-5.75 3.4375 -5.75 3.4375 -5 1 C-3 0 -3 0 0 0 Z M-4 4 C-4 4.66 -4 5.32 -4 6 C-3.34 6 -2.68 6 -2 6 C-2 5.34 -2 4.68 -2 4 C-2.66 4 -3.32 4 -4 4 Z " fill="#0B282C" transform="translate(19,12)"/>
<path d="M0 0 C3.89696309 0.33025111 5.66229208 0.89233366 8.6875 3.3125 C10 5.5 10 5.5 10.6875 7.3125 C9.6975 7.6425 8.7075 7.9725 7.6875 8.3125 C6.9759375 7.384375 6.9759375 7.384375 6.25 6.4375 C2.70945453 3.5014379 -0.85077956 3.03705289 -5.3125 2.3125 C-3.3125 0.3125 -3.3125 0.3125 0 0 Z " fill="#2C5759" transform="translate(16.3125,4.6875)"/>
<path d="M0 0 C0.99 0.33 1.98 0.66 3 1 C2.38125 1.70125 1.7625 2.4025 1.125 3.125 C-1.0427009 6.05777181 -2.02655555 8.51182406 -3 12 C-4.125 10.3125 -4.125 10.3125 -5 8 C-4.06552903 4.51697183 -2.71994995 2.34904769 0 0 Z " fill="#143A3E" transform="translate(10,7)"/>
<path d="M0 0 C0.66 0.66 1.32 1.32 2 2 C1.67 2.66 1.34 3.32 1 4 C1.66 4 2.32 4 3 4 C3.33 2.68 3.66 1.36 4 0 C4.33 0 4.66 0 5 0 C5 1.98 5 3.96 5 6 C3.35 6 1.7 6 0 6 C0 4.02 0 2.04 0 0 Z " fill="#658582" transform="translate(8,13)"/>
<path d="M0 0 C0.66 0.66 1.32 1.32 2 2 C1.67 2.33 1.34 2.66 1 3 C2.65 3.33 4.3 3.66 6 4 C6 4.33 6 4.66 6 5 C3.69 5.33 1.38 5.66 -1 6 C-1.66 4.68 -2.32 3.36 -3 2 C-2.01 1.34 -1.02 0.68 0 0 Z " fill="#2B5351" transform="translate(13,18)"/>
<path d="M0 0 C2.375 0.25 2.375 0.25 5 1 C6.3125 3.0625 6.3125 3.0625 7 5 C6.01 5.33 5.02 5.66 4 6 C2.62437146 4.71034824 1.29233607 3.37310707 0 2 C0 1.34 0 0.68 0 0 Z " fill="#1E494B" transform="translate(20,7)"/>
<path d="M0 0 C0.99 0 1.98 0 3 0 C3 0.99 3 1.98 3 3 C2.34 3 1.68 3 1 3 C1.33 3.99 1.66 4.98 2 6 C1.01 5.67 0.02 5.34 -1 5 C-0.67 3.35 -0.34 1.7 0 0 Z " fill="#042225" transform="translate(14,13)"/>
</svg>
